<svg xmlns="http://www.w3.org/2000/svg" viewBox="0 0 180 180" fill="none" shape-rendering="auto"><metadata xmlns:rdf="http://www.w3.org/1999/02/22-rdf-syntax-ns#" xmlns:xsi="http://www.w3.org/2001/XMLSchema-instance" xmlns:dc="http://purl.org/dc/elements/1.1/" xmlns:dcterms="http://purl.org/dc/terms/"><rdf:RDF><rdf:Description><dc:title>Bottts</dc:title><dc:creator>Pablo Stanley</dc:creator><dc:source xsi:type="dcterms:URI">https://bottts.com/</dc:source><dcterms:license xsi:type="dcterms:URI">https://bottts.com/</dcterms:license><dc:rights>Remix of „Bottts” (https://bottts.com/) by „Pablo Stanley”, licensed under „Free for personal and commercial use” (https://bottts.com/)</dc:rights></rdf:Description></rdf:RDF></metadata><mask id="viewboxMask"><rect width="180" height="180" rx="0" ry="0" x="0" y="0" fill="#fff" /></mask><g mask="url(#viewboxMask)"><rect fill="#00ced1" width="180" height="180" x="0" y="0" /><g transform="translate(0 66)"><mask id="sidesAntenna02-a" style="mask-type:luminance" maskUnits="userSpaceOnUse" x="10" y="9" width="160" height="51"><g fill="#fff"><rect x="10" y="28" width="36" height="32" rx="4"/><path d="M160 9h2v20h-2z"/><rect x="134" y="28" width="36" height="32" rx="4"/></g></mask><g mask="url(#sidesAntenna02-a)"><path d="M0 0h180v76H0V0Z" fill="#546e7a"/><path d="M0 0h180v76H0V0Z" fill="#fff" fill-opacity=".3"/><path fill="#000" fill-opacity=".1" d="M0 38h180v38H0z"/></g><path fill="#fff" fill-opacity=".4" d="M160 8h2v20h-2z"/><circle cx="161" cy="5" r="4" fill="#E1E6E8"/><circle cx="162" cy="4" r="2" fill="#fff"/></g><g transform="translate(41)"><mask id="topAntenna-a" style="mask-type:luminance" maskUnits="userSpaceOnUse" x="38" y="5" width="24" height="47"><path d="M38 38c0-1.1.9-2 2-2h20a2 2 0 0 1 2 2v14H38V38ZM48 5h4v31h-4z" fill="#fff"/></mask><g mask="url(#topAntenna-a)"><path d="M0 0h100v52H0V0Z" fill="#546e7a"/><path d="M0 3h100v52H0V3Z" fill="#fff" fill-opacity=".3"/><path fill="#fff" fill-opacity=".2" d="M38 36h24v16H38z"/></g><circle cx="50" cy="8" r="8" fill="#FFE65C"/><circle cx="53" cy="5" r="3" fill="#fff"/></g><g transform="translate(25 44)"><mask id="faceSquare01-a" style="mask-type:luminance" maskUnits="userSpaceOnUse" x="0" y="0" width="130" height="120"><rect width="130" height="120" rx="18" fill="#fff"/></mask><g mask="url(#faceSquare01-a)"><path d="M-2-2h134v124H-2V-2Z" fill="#546e7a"/><g transform="translate(-1 -1)"></g></g></g><g transform="translate(52 124)"><path d="M27.05 8.44a2 2 0 1 1 3.9-.88C31.72 10.96 34.4 13 38 13c3.6 0 6.28-2.04 7.05-5.44a2 2 0 1 1 3.9.88C47.75 13.7 43.43 17 38 17s-9.76-3.3-10.95-8.56Z" fill="#000" fill-opacity=".6"/></g><g transform="translate(38 76)"><circle cx="28" cy="24" r="18" fill="#000" fill-opacity=".2"/><circle cx="74" cy="24" r="18" fill="#000" fill-opacity=".2"/><circle cx="28" cy="24" r="15" fill="#F1EEDA"/><circle cx="74" cy="24" r="15" fill="#F1EEDA"/><rect x="26" y="15" width="10" height="10" rx="2" fill="#000" fill-opacity=".8"/><rect x="74" y="15" width="10" height="10" rx="2" fill="#000" fill-opacity=".8"/></g></g></svg>