<svg xmlns="http://www.w3.org/2000/svg" viewBox="0 0 180 180" fill="none" shape-rendering="auto"><metadata xmlns:rdf="http://www.w3.org/1999/02/22-rdf-syntax-ns#" xmlns:xsi="http://www.w3.org/2001/XMLSchema-instance" xmlns:dc="http://purl.org/dc/elements/1.1/" xmlns:dcterms="http://purl.org/dc/terms/"><rdf:RDF><rdf:Description><dc:title>Bottts</dc:title><dc:creator>Pablo Stanley</dc:creator><dc:source xsi:type="dcterms:URI">https://bottts.com/</dc:source><dcterms:license xsi:type="dcterms:URI">https://bottts.com/</dcterms:license><dc:rights>Remix of „Bottts” (https://bottts.com/) by „Pablo Stanley”, licensed under „Free for personal and commercial use” (https://bottts.com/)</dc:rights></rdf:Description></rdf:RDF></metadata><mask id="viewboxMask"><rect width="180" height="180" rx="0" ry="0" x="0" y="0" fill="#fff" /></mask><g mask="url(#viewboxMask)"><rect fill="#5b9bd5" width="180" height="180" x="0" y="0" /><g transform="translate(0 66)"><mask id="sidesAntenna01-a" style="mask-type:luminance" maskUnits="userSpaceOnUse" x="6" y="11" width="156" height="51"><g fill="#fff"><rect x="6" y="31" width="36" height="14" rx="4"/><rect x="18" y="14" width="36" height="48" rx="4"/><rect x="126" y="28" width="36" height="24" rx="4"/><path d="M11 11h2v20h-2z"/></g></mask><g mask="url(#sidesAntenna01-a)"><path d="M0 0h180v76H0V0Z" fill="#5e35b1"/><path fill="#fff" fill-opacity=".3" d="M0 0h180v76H0z"/><path fill="#000" fill-opacity=".1" d="M0 38h180v38H0z"/></g><path fill="#fff" fill-opacity=".4" d="M11 11h2v20h-2z"/><circle cx="12" cy="8" r="4" fill="#FFEA8F"/><circle cx="13" cy="7" r="2" fill="#fff"/></g><g transform="translate(41)"><g filter="url(#topGlowingBulb02-a)"><path fill-rule="evenodd" clip-rule="evenodd" d="M30 33a20 20 0 1 1 40 0v11H30V33Z" fill="#fff" fill-opacity=".3"/></g><ellipse cx="50" cy="30" rx="4" ry="6" fill="#fff" fill-opacity=".6"/><path d="M50 15.5c4.93 0 9.37 2.13 12.44 5.52m2.43 3.5c.7 1.3 1.21 2.73 1.53 4.23" stroke="#fff" stroke-width="2" stroke-linecap="round"/><rect x="20" y="36" width="60" height="16" rx="1" fill="#48494B"/><defs><filter id="topGlowingBulb02-a" x="22" y="5" width="56" height="47" filterUnits="userSpaceOnUse" color-interpolation-filters="sRGB"><feFlood flood-opacity="0" result="BackgroundImageFix"/><feColorMatrix in="SourceAlpha" values="0 0 0 0 0 0 0 0 0 0 0 0 0 0 0 0 0 0 127 0" result="hardAlpha"/><feOffset/><feGaussianBlur stdDeviation="4"/><feColorMatrix values="0 0 0 0 1 0 0 0 0 1 0 0 0 0 1 0 0 0 0.5 0"/><feBlend in2="BackgroundImageFix" result="effect1_dropShadow_617_633"/><feBlend in="SourceGraphic" in2="effect1_dropShadow_617_633" result="shape"/><feColorMatrix in="SourceAlpha" values="0 0 0 0 0 0 0 0 0 0 0 0 0 0 0 0 0 0 127 0" result="hardAlpha"/><feOffset/><feGaussianBlur stdDeviation="2"/><feComposite in2="hardAlpha" operator="arithmetic" k2="-1" k3="1"/><feColorMatrix values="0 0 0 0 1 0 0 0 0 1 0 0 0 0 1 0 0 0 0.5 0"/><feBlend in2="shape" result="effect2_innerShadow_617_633"/></filter></defs></g><g transform="translate(25 44)"><mask id="faceSquare01-a" style="mask-type:luminance" maskUnits="userSpaceOnUse" x="0" y="0" width="130" height="120"><rect width="130" height="120" rx="18" fill="#fff"/></mask><g mask="url(#faceSquare01-a)"><path d="M-2-2h134v124H-2V-2Z" fill="#5e35b1"/><g transform="translate(-1 -1)"></g></g></g><g transform="translate(52 124)"><rect x="4" y="5" width="68" height="22" rx="5" fill="#000" fill-opacity=".2"/><rect x="8" y="9" width="60" height="14" rx="2" fill="#fff"/><path fill="#000" fill-opacity=".1" d="M18 9h4v14h-4zM42 9h4v14h-4zM30 9h4v14h-4zM54 9h4v14h-4z"/></g><g transform="translate(38 76)"><path d="M96 2H8c-4.5 0-8 3.5-8 8.03V28c0 4.5 3.5 8 8 8h13c8 0 11 8 18 8h27c7 0 9-8 17-8h13c4.5 0 8-3.5 8-8V10c0-4.5-3.5-8-8-8Z" fill="#000" fill-opacity=".8"/><path d="M87 14H17c-3.5 0-5 3-5 5v2c0 2 1.5 5 5 5h12c6 0 11.62 8 17 8h14c5.38 0 9-8 15-8h12c3.5 0 5-3 5-5v-2c0-2-1.5-5-5-5Z" fill="#FF3D3D"/><path d="M22.44 36.09 37.26 2h11L31.4 40.78l-.76-.58c-2.38-1.82-4.83-3.69-8.2-4.11ZM11.48 36 26.26 2h4L15.48 36h-4Z" fill="#fff" fill-opacity=".2"/></g></g></svg>